<svg xmlns="http://www.w3.org/2000/svg" xmlns:xlink="http://www.w3.org/1999/xlink" width="130" zoomAndPan="magnify" viewBox="0 0 97.5 37.5" height="50" preserveAspectRatio="xMidYMid meet" version="1.0"><defs><g/><clipPath id="269947fcc7"><path d="M 0.394531 5.339844 L 27 5.339844 L 27 31.777344 L 0.394531 31.777344 Z M 0.394531 5.339844 " clip-rule="nonzero"/></clipPath></defs><g clip-path="url(#269947fcc7)"><path fill="#1967d2" d="M 11.058594 5.339844 C 5.242188 5.339844 0.53125 10.074219 0.53125 15.914062 L 0.53125 21.203125 C 0.53125 27.042969 5.242188 31.777344 11.058594 31.777344 L 16.324219 31.777344 C 22.136719 31.777344 26.851562 27.042969 26.851562 21.203125 L 26.851562 15.914062 C 26.851562 10.074219 22.136719 5.339844 16.324219 5.339844 Z M 17.902344 11.933594 L 10.972656 18.695312 C 9.914062 17.660156 9.914062 15.988281 10.972656 14.953125 L 14.070312 11.929688 C 15.128906 10.898438 16.84375 10.898438 17.902344 11.933594 Z M 10.800781 25.898438 L 15.808594 21.007812 C 16.867188 19.972656 16.867188 18.296875 15.808594 17.261719 L 10.800781 22.15625 C 9.742188 23.191406 9.742188 24.863281 10.800781 25.898438 Z M 17.023438 19.136719 C 17.023438 18.980469 17.007812 18.828125 16.988281 18.679688 C 17.410156 19.648438 17.21875 20.808594 16.414062 21.597656 L 11.40625 26.488281 C 11.300781 26.386719 11.207031 26.273438 11.125 26.164062 L 16.109375 21.292969 C 16.703125 20.714844 17.023438 19.953125 17.023438 19.136719 Z M 15.355469 17.128906 L 13.136719 19.304688 L 11.433594 18.824219 L 13.679688 16.636719 Z M 15.355469 17.128906 " fill-opacity="1" fill-rule="evenodd"/></g><g fill="#000000" fill-opacity="1"><g transform="translate(33.942305, 22.366973)"><g><path d="M 2.9375 -6.65625 L 0.40625 -6.65625 L 0.40625 -8.34375 L 7.3125 -8.34375 L 7.3125 -6.65625 L 4.78125 -6.65625 L 4.78125 0 L 2.9375 0 Z M 2.9375 -6.65625 "/></g></g></g><g fill="#000000" fill-opacity="1"><g transform="translate(40.41904, 22.366973)"><g><path d="M 2.625 0.125 C 2.320312 0.125 2.035156 0.0820312 1.765625 0 C 1.503906 -0.0820312 1.273438 -0.207031 1.078125 -0.375 C 0.878906 -0.539062 0.71875 -0.742188 0.59375 -0.984375 C 0.476562 -1.234375 0.421875 -1.519531 0.421875 -1.84375 L 0.421875 -1.859375 C 0.421875 -2.210938 0.484375 -2.515625 0.609375 -2.765625 C 0.742188 -3.015625 0.921875 -3.222656 1.140625 -3.390625 C 1.367188 -3.554688 1.640625 -3.679688 1.953125 -3.765625 C 2.273438 -3.859375 2.625 -3.90625 3 -3.90625 C 3.332031 -3.90625 3.617188 -3.878906 3.859375 -3.828125 C 4.097656 -3.773438 4.332031 -3.710938 4.5625 -3.640625 L 4.5625 -3.75 C 4.5625 -4.125 4.445312 -4.410156 4.21875 -4.609375 C 3.988281 -4.804688 3.644531 -4.90625 3.1875 -4.90625 C 2.84375 -4.90625 2.535156 -4.875 2.265625 -4.8125 C 2.003906 -4.757812 1.726562 -4.675781 1.4375 -4.5625 L 0.984375 -5.953125 C 1.328125 -6.097656 1.6875 -6.21875 2.0625 -6.3125 C 2.445312 -6.414062 2.910156 -6.46875 3.453125 -6.46875 C 3.953125 -6.46875 4.378906 -6.40625 4.734375 -6.28125 C 5.085938 -6.15625 5.378906 -5.976562 5.609375 -5.75 C 5.847656 -5.507812 6.023438 -5.210938 6.140625 -4.859375 C 6.253906 -4.515625 6.3125 -4.128906 6.3125 -3.703125 L 6.3125 0 L 4.546875 0 L 4.546875 -0.6875 C 4.328125 -0.445312 4.0625 -0.25 3.75 -0.09375 C 3.445312 0.0507812 3.070312 0.125 2.625 0.125 Z M 3.171875 -1.125 C 3.597656 -1.125 3.941406 -1.226562 4.203125 -1.4375 C 4.460938 -1.644531 4.59375 -1.914062 4.59375 -2.25 L 4.59375 -2.578125 C 4.425781 -2.648438 4.242188 -2.707031 4.046875 -2.75 C 3.859375 -2.789062 3.65625 -2.8125 3.4375 -2.8125 C 3.039062 -2.8125 2.734375 -2.734375 2.515625 -2.578125 C 2.296875 -2.429688 2.1875 -2.21875 2.1875 -1.9375 L 2.1875 -1.90625 C 2.1875 -1.65625 2.273438 -1.460938 2.453125 -1.328125 C 2.640625 -1.191406 2.878906 -1.125 3.171875 -1.125 Z M 3.171875 -1.125 "/></g></g></g><g fill="#000000" fill-opacity="1"><g transform="translate(47.480324, 22.366973)"><g><path d="M 0.890625 -8.703125 L 2.703125 -8.703125 L 2.703125 0 L 0.890625 0 Z M 0.890625 -8.703125 "/></g></g></g><g fill="#000000" fill-opacity="1"><g transform="translate(51.082531, 22.366973)"><g><path d="M 3.84375 0.140625 C 3.363281 0.140625 2.914062 0.0625 2.5 -0.09375 C 2.09375 -0.25 1.738281 -0.472656 1.4375 -0.765625 C 1.144531 -1.066406 0.914062 -1.414062 0.75 -1.8125 C 0.582031 -2.21875 0.5 -2.664062 0.5 -3.15625 L 0.5 -3.1875 C 0.5 -3.632812 0.578125 -4.0625 0.734375 -4.46875 C 0.890625 -4.875 1.101562 -5.226562 1.375 -5.53125 C 1.65625 -5.832031 1.988281 -6.070312 2.375 -6.25 C 2.757812 -6.425781 3.1875 -6.515625 3.65625 -6.515625 C 4.1875 -6.515625 4.644531 -6.414062 5.03125 -6.21875 C 5.425781 -6.03125 5.753906 -5.773438 6.015625 -5.453125 C 6.273438 -5.128906 6.460938 -4.757812 6.578125 -4.34375 C 6.703125 -3.925781 6.765625 -3.492188 6.765625 -3.046875 C 6.765625 -2.972656 6.765625 -2.894531 6.765625 -2.8125 C 6.765625 -2.726562 6.757812 -2.644531 6.75 -2.5625 L 2.296875 -2.5625 C 2.390625 -2.144531 2.570312 -1.832031 2.84375 -1.625 C 3.113281 -1.414062 3.453125 -1.3125 3.859375 -1.3125 C 4.160156 -1.3125 4.429688 -1.363281 4.671875 -1.46875 C 4.910156 -1.570312 5.15625 -1.738281 5.40625 -1.96875 L 6.453125 -1.046875 C 6.148438 -0.671875 5.78125 -0.378906 5.34375 -0.171875 C 4.914062 0.0351562 4.414062 0.140625 3.84375 0.140625 Z M 5 -3.703125 C 4.945312 -4.097656 4.804688 -4.421875 4.578125 -4.671875 C 4.347656 -4.929688 4.039062 -5.0625 3.65625 -5.0625 C 3.28125 -5.0625 2.972656 -4.9375 2.734375 -4.6875 C 2.503906 -4.4375 2.351562 -4.109375 2.28125 -3.703125 Z M 5 -3.703125 "/></g></g></g><g fill="#000000" fill-opacity="1"><g transform="translate(58.3943, 22.366973)"><g><path d="M 0.8125 -6.390625 L 2.625 -6.390625 L 2.625 -5.484375 C 2.726562 -5.617188 2.835938 -5.75 2.953125 -5.875 C 3.078125 -6 3.210938 -6.109375 3.359375 -6.203125 C 3.515625 -6.296875 3.6875 -6.367188 3.875 -6.421875 C 4.0625 -6.484375 4.269531 -6.515625 4.5 -6.515625 C 5.1875 -6.515625 5.71875 -6.300781 6.09375 -5.875 C 6.476562 -5.457031 6.671875 -4.878906 6.671875 -4.140625 L 6.671875 0 L 4.859375 0 L 4.859375 -3.5625 C 4.859375 -3.988281 4.757812 -4.3125 4.5625 -4.53125 C 4.375 -4.75 4.101562 -4.859375 3.75 -4.859375 C 3.40625 -4.859375 3.128906 -4.75 2.921875 -4.53125 C 2.722656 -4.3125 2.625 -3.988281 2.625 -3.5625 L 2.625 0 L 0.8125 0 Z M 0.8125 -6.390625 "/></g></g></g><g fill="#000000" fill-opacity="1"><g transform="translate(65.825344, 22.366973)"><g><path d="M 2.96875 0.109375 C 2.6875 0.109375 2.429688 0.078125 2.203125 0.015625 C 1.984375 -0.046875 1.789062 -0.148438 1.625 -0.296875 C 1.46875 -0.453125 1.34375 -0.648438 1.25 -0.890625 C 1.15625 -1.128906 1.109375 -1.4375 1.109375 -1.8125 L 1.109375 -4.84375 L 0.34375 -4.84375 L 0.34375 -6.390625 L 1.109375 -6.390625 L 1.109375 -8.015625 L 2.921875 -8.015625 L 2.921875 -6.390625 L 4.421875 -6.390625 L 4.421875 -4.84375 L 2.921875 -4.84375 L 2.921875 -2.109375 C 2.921875 -1.691406 3.113281 -1.484375 3.5 -1.484375 C 3.820312 -1.484375 4.125 -1.5625 4.40625 -1.71875 L 4.40625 -0.265625 C 4.207031 -0.148438 3.992188 -0.0625 3.765625 0 C 3.535156 0.0703125 3.269531 0.109375 2.96875 0.109375 Z M 2.96875 0.109375 "/></g></g></g><g fill="#000000" fill-opacity="1"><g transform="translate(70.775395, 22.366973)"><g><path d="M 1 -8.34375 L 2.84375 -8.34375 L 2.84375 -5.046875 L 6.21875 -5.046875 L 6.21875 -8.34375 L 8.0625 -8.34375 L 8.0625 0 L 6.21875 0 L 6.21875 -3.34375 L 2.84375 -3.34375 L 2.84375 0 L 1 0 Z M 1 -8.34375 "/></g></g></g><g fill="#000000" fill-opacity="1"><g transform="translate(79.840558, 22.366973)"><g><path d="M 2.9375 0.125 C 2.238281 0.125 1.703125 -0.0820312 1.328125 -0.5 C 0.953125 -0.925781 0.765625 -1.507812 0.765625 -2.25 L 0.765625 -6.390625 L 2.578125 -6.390625 L 2.578125 -2.828125 C 2.578125 -2.398438 2.671875 -2.078125 2.859375 -1.859375 C 3.046875 -1.640625 3.316406 -1.53125 3.671875 -1.53125 C 4.023438 -1.53125 4.300781 -1.640625 4.5 -1.859375 C 4.695312 -2.078125 4.796875 -2.398438 4.796875 -2.828125 L 4.796875 -6.390625 L 6.609375 -6.390625 L 6.609375 0 L 4.796875 0 L 4.796875 -0.90625 C 4.703125 -0.769531 4.59375 -0.640625 4.46875 -0.515625 C 4.34375 -0.390625 4.203125 -0.28125 4.046875 -0.1875 C 3.898438 -0.09375 3.734375 -0.0195312 3.546875 0.03125 C 3.367188 0.09375 3.164062 0.125 2.9375 0.125 Z M 2.9375 0.125 "/></g></g></g><g fill="#000000" fill-opacity="1"><g transform="translate(87.271602, 22.366973)"><g><path d="M 4.609375 0.125 C 4.128906 0.125 3.726562 0.03125 3.40625 -0.15625 C 3.09375 -0.351562 2.832031 -0.578125 2.625 -0.828125 L 2.625 0 L 0.8125 0 L 0.8125 -8.703125 L 2.625 -8.703125 L 2.625 -5.46875 C 2.84375 -5.769531 3.109375 -6.019531 3.421875 -6.21875 C 3.742188 -6.414062 4.140625 -6.515625 4.609375 -6.515625 C 4.984375 -6.515625 5.34375 -6.441406 5.6875 -6.296875 C 6.039062 -6.148438 6.351562 -5.9375 6.625 -5.65625 C 6.894531 -5.375 7.109375 -5.023438 7.265625 -4.609375 C 7.429688 -4.203125 7.515625 -3.734375 7.515625 -3.203125 L 7.515625 -3.1875 C 7.515625 -2.65625 7.429688 -2.179688 7.265625 -1.765625 C 7.109375 -1.359375 6.894531 -1.015625 6.625 -0.734375 C 6.363281 -0.453125 6.054688 -0.238281 5.703125 -0.09375 C 5.359375 0.0507812 4.992188 0.125 4.609375 0.125 Z M 4.15625 -1.421875 C 4.363281 -1.421875 4.5625 -1.460938 4.75 -1.546875 C 4.9375 -1.628906 5.097656 -1.75 5.234375 -1.90625 C 5.378906 -2.0625 5.492188 -2.242188 5.578125 -2.453125 C 5.660156 -2.671875 5.703125 -2.914062 5.703125 -3.1875 L 5.703125 -3.203125 C 5.703125 -3.460938 5.660156 -3.703125 5.578125 -3.921875 C 5.492188 -4.140625 5.378906 -4.328125 5.234375 -4.484375 C 5.097656 -4.640625 4.9375 -4.757812 4.75 -4.84375 C 4.5625 -4.925781 4.363281 -4.96875 4.15625 -4.96875 C 3.9375 -4.96875 3.734375 -4.925781 3.546875 -4.84375 C 3.359375 -4.757812 3.191406 -4.640625 3.046875 -4.484375 C 2.910156 -4.328125 2.800781 -4.140625 2.71875 -3.921875 C 2.632812 -3.703125 2.59375 -3.460938 2.59375 -3.203125 L 2.59375 -3.1875 C 2.59375 -2.925781 2.632812 -2.6875 2.71875 -2.46875 C 2.800781 -2.25 2.910156 -2.0625 3.046875 -1.90625 C 3.191406 -1.75 3.359375 -1.628906 3.546875 -1.546875 C 3.734375 -1.460938 3.9375 -1.421875 4.15625 -1.421875 Z M 4.15625 -1.421875 "/></g></g></g></svg>